<?xml version="1.0" encoding="utf-8"?>
<!-- Generator: Adobe Illustrator 23.1.0, SVG Export Plug-In . SVG Version: 6.00 Build 0)  -->
<svg version="1.1" id="Layer_1" xmlns="http://www.w3.org/2000/svg" xmlns:xlink="http://www.w3.org/1999/xlink" x="0px" y="0px"
	 viewBox="0 0 200 200" style="enable-background:new 0 0 200 200;" xml:space="preserve">
<style type="text/css">
	.st0{fill:#BDBDBD;}
	.st1{fill:#757575;}
	.st2{fill:#FFFFFF;}
	.st3{fill:#212121;}
	.st4{font-family:'Roboto-Medium';}
	.st5{font-size:14px;}
</style>
<g>
	<path class="st0" d="M100,19.24c-37.32,0-67.58,30.26-67.58,67.58c0,37.32,30.26,67.58,67.58,67.58
		c37.32,0,67.58-30.26,67.58-67.58C167.58,49.5,137.32,19.24,100,19.24z M159.35,86.82c0,14.96-5.55,28.62-14.68,39.05L60.95,42.16
		C71.38,33.02,85.04,27.48,100,27.48C132.78,27.48,159.35,54.05,159.35,86.82z M40.65,86.82c0-14.92,5.52-28.54,14.6-38.96
		l83.71,83.71c-10.43,9.09-24.05,14.6-38.97,14.6C67.22,146.17,40.65,119.6,40.65,86.82z"/>
	<g>
		<path class="st1" d="M100,101.61c1.02,0,2.02-0.1,2.99-0.3L85.17,83.49c-0.19,0.97-0.3,1.97-0.3,2.99
			C84.88,94.83,91.65,101.61,100,101.61z"/>
		<path class="st1" d="M100,106.89c-11.27,0-20.41-9.14-20.41-20.41c0-2.55,0.49-4.98,1.34-7.23L68.38,66.7
			c-2.75,0.83-4.75,3.38-4.75,6.4v31.05c0,3.69,3,6.69,6.69,6.69h42.2l-5.29-5.29C104.98,106.4,102.55,106.89,100,106.89z"/>
	</g>
	<g>
		<path class="st1" d="M100,71.36c-1.12,0-2.21,0.13-3.27,0.36l18.03,18.03c0.23-1.05,0.36-2.14,0.36-3.27
			C115.12,78.13,108.35,71.36,100,71.36z"/>
		<path class="st1" d="M129.33,66.41h-10.7l-2.33-3.12c-2.27-2.85-4.58-5.18-7.44-5.18H87.97c-1.3,0-2.51,0.44-3.65,1.2l8.19,8.19
			c2.32-0.92,4.84-1.44,7.48-1.44c11.27,0,20.41,9.14,20.41,20.41c0,2.65-0.52,5.16-1.44,7.48l15,15c1.26-1.22,2.05-2.92,2.05-4.81
			V73.1C136.02,69.41,133.03,66.41,129.33,66.41z"/>
	</g>
	<circle class="st2" cx="128.22" cy="74.39" r="4.2"/>
</g>
<text transform="matrix(1 0 0 1 42.1301 181.6836)" class="st3 st4 st5">NO IMAGE FOUND</text>
</svg>
